<svg id="레이어_1" data-name="레이어 1" xmlns="http://www.w3.org/2000/svg" viewBox="0 0 400 512"><defs><style>.cls-1{fill:#ec9a00;}.cls-2{fill:#fff;}</style></defs><title>13</title><polygon class="cls-1" points="0 0 0 419.74 199.77 512 400 419.74 400 0 0 0"/><path class="cls-2" d="M293.6,249.27q0,20.85-8.46,36.13A76,76,0,0,1,263,310.56a97.64,97.64,0,0,1-30.78,14.74,126.85,126.85,0,0,1-34.74,4.85,142.73,142.73,0,0,1-33.66-4,106.16,106.16,0,0,1-29.88-12.06,86.49,86.49,0,0,1-23.58-20.88q-10.08-12.76-15.12-30.78l56.16-14.76q3.6,12.61,14.76,22.14t28.44,9.54a49.79,49.79,0,0,0,13.14-1.8A35.92,35.92,0,0,0,219.62,272a30.07,30.07,0,0,0,8.64-9.9q3.42-6.11,3.42-15.12,0-9.72-4.5-16.2a31.87,31.87,0,0,0-11.88-10.26,58.34,58.34,0,0,0-16.74-5.4,109.58,109.58,0,0,0-18.72-1.62h-16.2V169.59h17.64a105.32,105.32,0,0,0,16.56-1.26,44.11,44.11,0,0,0,14.22-4.71,27.61,27.61,0,0,0,10.08-9.24q3.78-5.79,3.78-15.21,0-13.77-9.72-21a36.36,36.36,0,0,0-22.32-7.25,34.62,34.62,0,0,0-22.5,7.74A35.77,35.77,0,0,0,159,139.35l-56.16-13a83.31,83.31,0,0,1,14-28.26A86.36,86.36,0,0,1,139,78a102.2,102.2,0,0,1,27.9-12.24,117.12,117.12,0,0,1,31-4.14,126,126,0,0,1,32.94,4.33A88.14,88.14,0,0,1,259.4,79.26a70.38,70.38,0,0,1,20.34,22.53q7.74,13.53,7.74,31.91,0,21.28-12.06,35.88a58.73,58.73,0,0,1-30.78,19.64v1.08a65.79,65.79,0,0,1,19.8,8.09,63.92,63.92,0,0,1,15.48,13.31A59.22,59.22,0,0,1,290,229,57,57,0,0,1,293.6,249.27Z" transform="translate(0)"/><polygon class="cls-2" points="0 339.02 0 378.94 199.77 471.2 400 378.94 400 339.02 199.77 431.28 0 339.02"/></svg>