<svg id="레이어_1" data-name="레이어 1" xmlns="http://www.w3.org/2000/svg" viewBox="0 0 400 512"><defs><style>.cls-1{fill:#00b4fc;}.cls-2{fill:#fff;}</style></defs><title>24</title><polygon class="cls-1" points="0 0 0 419.74 199.77 512 400 419.74 400 0 0 0"/><path class="cls-2" d="M108.2,323.31V273l99.36-89.85a93.82,93.82,0,0,0,15.12-18.33A38.88,38.88,0,0,0,228.44,144q0-13.65-8.64-22.1t-23-8.45q-15.12,0-24.66,10.62T160.76,152l-58-7.92a91,91,0,0,1,10.62-34.62,90,90,0,0,1,21.42-25.89,92.61,92.61,0,0,1,29.7-16.31A110.86,110.86,0,0,1,200,61.59a125.53,125.53,0,0,1,34.2,4.68,89.24,89.24,0,0,1,29.52,14.4,71.88,71.88,0,0,1,20.7,24.48q7.74,14.77,7.74,34.56a78.88,78.88,0,0,1-3.6,24.66,81.62,81.62,0,0,1-9.9,20.34,116.69,116.69,0,0,1-14.4,17.46q-8.1,8.1-16.74,16l-59,52.56h104v52.56Z" transform="translate(0)"/><polygon class="cls-2" points="0 339.02 0 378.94 199.77 471.2 400 378.94 400 339.02 199.77 431.28 0 339.02"/></svg>