<svg id="레이어_1" data-name="레이어 1" xmlns="http://www.w3.org/2000/svg" viewBox="0 0 400 512"><defs><style>.cls-1{fill:#435f7a;}.cls-2{fill:#fff;}</style></defs><title>6</title><polygon class="cls-1" points="0 0 0 419.74 199.77 512 400 419.74 400 0 0 0"/><path class="cls-2" d="M293.24,239.07q0,23.42-8.28,40.5a80.79,80.79,0,0,1-22.14,28.26,95.4,95.4,0,0,1-31.5,16.74,122,122,0,0,1-69.3,1.08,105,105,0,0,1-28.44-12.78,86.12,86.12,0,0,1-22-20.34,81.21,81.21,0,0,1-13.5-27.18l55.08-16.92a42.82,42.82,0,0,0,14.94,22q11,8.64,26.1,8.64a40.76,40.76,0,0,0,26.82-9.36Q232.4,260.33,232.4,242q0-11.14-4.68-18.72a36.31,36.31,0,0,0-12.06-12.06,50.2,50.2,0,0,0-16.74-6.3,98.92,98.92,0,0,0-18.72-1.8,183.54,183.54,0,0,0-31.14,3.06,181.34,181.34,0,0,0-31.14,8.1L124,68.43H280.28v51.84H177.68l-2.16,40.32a78.33,78.33,0,0,1,12.78-2q7-.54,12.78-.54a125.49,125.49,0,0,1,36,5,82.55,82.55,0,0,1,29.34,15.3A73.33,73.33,0,0,1,286,203.79Q293.24,218.91,293.24,239.07Z" transform="translate(0)"/><polygon class="cls-2" points="0 339.02 0 378.94 199.77 471.2 400 378.94 400 339.02 199.77 431.28 0 339.02"/></svg>