<svg id="레이어_1" data-name="레이어 1" xmlns="http://www.w3.org/2000/svg" viewBox="0 0 400 512"><defs><style>.cls-1{fill:#9c62d3;}.cls-2{fill:#fff;}</style></defs><title>ka6</title><circle class="cls-1" cx="200" cy="200" r="200"/><path class="cls-2" d="M299.72,237.63q0,21.6-7.91,38.88a85,85,0,0,1-21.56,29.16,95.15,95.15,0,0,1-32,18.18,123.25,123.25,0,0,1-77.8,0,95.62,95.62,0,0,1-31.81-18.18,85.78,85.78,0,0,1-21.56-28.8q-7.91-16.9-7.9-37.8,0-22.68,7.92-41.22a239,239,0,0,1,20.5-37.62l61.51-91.8h73l-62.69,87.12-1.08,1.8a38.82,38.82,0,0,1,8.62-2.16,66.33,66.33,0,0,1,9.35-.72,87,87,0,0,1,31.8,5.94,78.76,78.76,0,0,1,26.59,16.92,83.81,83.81,0,0,1,18.15,26.28A82.66,82.66,0,0,1,299.72,237.63Zm-60.12,1.44q0-17.28-10.85-28.62t-28.93-11.34q-18.07,0-29.29,11.16t-11.21,29.16a40.67,40.67,0,0,0,10.85,28.44q10.85,11.88,29.29,11.88,18.07,0,29.11-11.16T239.6,239.07Z"/></svg>