<svg id="레이어_1" data-name="레이어 1" xmlns="http://www.w3.org/2000/svg" viewBox="0 0 400 512"><defs><style>.cls-1{fill:#2d2d2d;}.cls-2{fill:#fff;}</style></defs><title>not_ratable</title><polygon class="cls-1" points="0 0 0 419.742 199.77 512 400 419.742 400 0 0 0"/><path class="cls-2" d="M299.721,195.153a238.352,238.352,0,0,1-5.4,51.48q-5.4,24.486-17.279,43.02a89.408,89.408,0,0,1-30.78,29.521q-18.9,10.976-45.9,10.979t-46.08-10.979a90.419,90.419,0,0,1-31.14-29.521q-12.066-18.537-17.46-43.02a238.416,238.416,0,0,1-5.4-51.48,235.957,235.957,0,0,1,5.4-51.3q5.4-24.3,17.46-42.48a90.092,90.092,0,0,1,31.14-28.98q19.077-10.8,46.08-10.8t45.9,10.8a89.055,89.055,0,0,1,30.78,28.98q11.88,18.183,17.279,42.48A235.9,235.9,0,0,1,299.721,195.153Zm-61.92,0q0-11.88-1.441-26.28a131.386,131.386,0,0,0-5.4-26.82,58.33,58.33,0,0,0-11.34-20.88q-7.383-8.454-19.26-8.46a24.9,24.9,0,0,0-19.44,8.46,58.718,58.718,0,0,0-11.7,20.88,123.156,123.156,0,0,0-5.58,26.82q-1.443,14.4-1.44,26.28,0,12.243,1.44,26.82a123.283,123.283,0,0,0,5.58,27,58.671,58.671,0,0,0,11.7,20.881q7.56,8.462,19.44,8.459t19.26-8.459a58.284,58.284,0,0,0,11.34-20.881,131.473,131.473,0,0,0,5.4-27Q237.8,207.393,237.8,195.153Z" transform="translate(0)"/><polygon class="cls-2" points="0 339.025 0 378.94 199.77 471.198 400 378.94 400 339.025 199.77 431.282 0 339.025"/></svg>