<svg id="레이어_1" data-name="레이어 1" xmlns="http://www.w3.org/2000/svg" viewBox="0 0 400 512"><defs><style>.cls-1{fill:#c9c9c9;}.cls-2{fill:#fff;}</style></defs><title>unlisted</title><polygon class="cls-1" points="0 0 0 419.74 199.77 512 400 419.74 400 0 0 0"/><rect class="cls-2" width="100" height="100"/><rect class="cls-2" x="100" y="100" width="100" height="100"/><rect class="cls-2" y="200" width="100" height="100"/><rect class="cls-2" x="200" width="100" height="100"/><rect class="cls-2" x="300" y="100" width="100" height="100"/><rect class="cls-2" x="200" y="200" width="100" height="100"/><rect class="cls-2" x="100" y="300" width="100" height="100"/><rect class="cls-2" x="300" y="300" width="100" height="100"/><polygon class="cls-2" points="0 400 0 419.74 100 465.92 100 400 0 400"/><polygon class="cls-2" points="200 400 200 500 225.81 500 300 465.82 300 400 200 400"/><polygon class="cls-2" points="173.78 500 199.77 512 200 511.89 200 500 173.78 500"/></svg>